<?xml version="1.0" encoding="UTF-8" standalone="no"?>
<svg
   version="1.0"
   width="512.000000pt"
   height="512.000000pt"
   viewBox="0 0 512.000000 512.000000"
   preserveAspectRatio="xMidYMid meet"
   id="svg878"
   sodipodi:docname="empty.svg"
   inkscape:version="1.1 (c68e22c387, 2021-05-23)"
   xmlns:inkscape="http://www.inkscape.org/namespaces/inkscape"
   xmlns:sodipodi="http://sodipodi.sourceforge.net/DTD/sodipodi-0.dtd"
   xmlns="http://www.w3.org/2000/svg"
   xmlns:svg="http://www.w3.org/2000/svg">
  <defs
     id="defs882" />
  <sodipodi:namedview
     id="namedview880"
     pagecolor="#ffffff"
     bordercolor="#666666"
     borderopacity="1.0"
     inkscape:pageshadow="2"
     inkscape:pageopacity="0.0"
     inkscape:pagecheckerboard="0"
     inkscape:document-units="pt"
     showgrid="false"
     inkscape:zoom="0.72802734"
     inkscape:cx="340.64655"
     inkscape:cy="342.70691"
     inkscape:window-width="1366"
     inkscape:window-height="705"
     inkscape:window-x="-8"
     inkscape:window-y="-8"
     inkscape:window-maximized="1"
     inkscape:current-layer="g876" />
  <g
     transform="translate(0.000000,512.000000) scale(0.100000,-0.100000)"
     fill="#000000"
     stroke="none"
     id="g876">
    <path
       d="M1521 5106 c-91 -33 -155 -124 -155 -221 0 -172 174 -284 329 -211 88 40 135 114 135 211 0 31 -6 70 -13 88 -48 112 -184 174 -296 133z m142 -167 c25 -31 22 -85 -8 -114 -31 -32 -75 -32 -111 -1 -63 53 -16 155 65 142 20 -3 44 -15 54 -27z"
       id="path854"
       style="fill:#8383a6;fill-opacity:1" />
    <path
       d="M3930 4800 l0 -80 -85 0 -85 0 0 -75 0 -75 85 0 85 0 0 -85 0 -85 75 0 75 0 0 85 0 85 80 0 80 0 0 75 0 75 -80 0 -80 0 0 80 0 80 -75 0 -75 0 0 -80z"
       id="path856"
       style="fill:#8383a6;fill-opacity:1" />
    <path
       d="M2667 4790 c-242 -41 -457 -180 -596 -383 -162 -238 -190 -558 -72 -837 l29 -70 -121 -290 c-66 -160 -118 -293 -115 -296 3 -3 137 50 298 116 l293 122 66 -30 c119 -55 180 -67 351 -67 132 0 167 3 233 23 315 91 545 333 623 657 25 102 23 295 -5 400 -103 393 -462 670 -861 664 -41 -1 -97 -5 -123 -9z m318 -164 c33 -9 98 -35 145 -58 68 -34 103 -60 175 -133 98 -99 144 -167 180 -272 83 -239 37 -500 -123 -699 -212 -262 -590 -341 -894 -185 l-76 39 -164 -67 c-90 -38 -164 -67 -165 -66 -2 1 28 75 65 166 l69 164 -33 60 c-209 383 -32 864 376 1025 128 51 309 61 445 26z"
       id="path858"
       style="fill:#8383a6;fill-opacity:1" />
    <path
       d="M2897 4303 l-97 -98 -95 95 -95 95 -142 -143 -143 -142 95 -95 95 -95 -95 -95 -95 -95 143 -142 142 -143 95 95 95 95 95 -95 95 -95 142 143 143 142 -95 95 -95 95 93 93 c50 51 92 97 92 102 0 6 -62 72 -138 148 l-137 137 -98 -97z m-190 -215 l93 -93 95 95 95 95 37 -38 38 -37 -95 -95 -95 -95 95 -95 95 -95 -38 -37 -37 -38 -95 95 -95 95 -95 -95 -95 -95 -37 38 -38 37 95 95 95 95 -95 95 -94 95 34 35 c19 19 36 35 39 35 3 0 47 -42 98 -92z"
       id="path860"
       style="fill:#8383a6;fill-opacity:1" />
    <path
       d="M1040 4320 l0 -80 -80 0 -80 0 0 -75 0 -75 80 0 80 0 0 -85 0 -85 75 0 75 0 0 85 0 85 85 0 85 0 0 75 0 75 -85 0 -85 0 0 80 0 80 -75 0 -75 0 0 -80z"
       id="path862"
       style="fill:#8383a6;fill-opacity:1" />
    <path
       d="M4254 3906 c-63 -20 -111 -62 -140 -122 -23 -48 -26 -63 -21 -121 9 -118 95 -204 211 -211 219 -14 336 231 187 391 -57 63 -158 89 -237 63z m134 -172 c26 -29 28 -54 7 -93 -25 -49 -90 -57 -130 -16 -35 34 -33 78 5 117 26 25 36 29 63 24 18 -3 42 -17 55 -32z"
       id="path864"
       style="fill:#8383a6;fill-opacity:1" />
    <path
       d="M495 2680 l360 -360 -360 -360 -360 -360 1145 0 1145 0 265 265 c146 146 268 265 272 265 5 0 8 -445 8 -990 l0 -990 -970 0 -970 0 0 645 0 645 -75 0 -75 0 0 -720 0 -720 1680 0 1680 0 0 800 0 800 372 0 373 0 -360 360 -360 360 360 360 360 360 -665 0 -665 0 -232 -232 -233 -233 52 -52 52 -53 211 210 211 210 447 0 c246 0 447 -3 447 -8 0 -4 -109 -116 -243 -250 l-242 -242 -1005 0 -1005 0 -325 325 -325 325 -665 0 -665 0 360 -360z m1152 -32 c134 -133 243 -246 243 -250 0 -5 -201 -8 -447 -8 l-448 0 -242 242 c-134 134 -243 246 -243 250 0 5 201 8 447 8 l447 0 243 -242z m963 -653 l-245 -245 -935 0 -935 0 245 245 245 245 935 0 935 0 -245 -245z m1480 -800 l0 -1045 -485 0 -485 0 0 1045 0 1045 485 0 485 0 0 -1045z m345 745 l190 -190 -193 0 -192 0 0 190 c0 105 1 190 3 190 1 0 88 -85 192 -190z"
       id="path866"
       style="fill:#8383a6;fill-opacity:1" />
    <path
       d="M3450 915 l-144 -145 49 -50 c27 -27 54 -50 59 -50 6 0 34 23 63 52 l53 52 0 -187 0 -187 75 0 75 0 0 187 0 187 55 -54 55 -55 52 53 53 52 -145 145 c-80 80 -147 145 -150 145 -3 0 -70 -65 -150 -145z"
       id="path868"
       style="fill:#8383a6;fill-opacity:1" />
    <path
       d="M1600 475 l0 -75 80 0 80 0 0 75 0 75 -80 0 -80 0 0 -75z"
       id="path870"
       style="fill:#8383a6;fill-opacity:1" />
    <path
       d="M1920 475 l0 -75 80 0 80 0 0 75 0 75 -80 0 -80 0 0 -75z"
       id="path872"
       style="fill:#8383a6;fill-opacity:1" />
    <path
       d="M2240 475 l0 -75 80 0 80 0 0 75 0 75 -80 0 -80 0 0 -75z"
       id="path874"
       style="fill:#8383a6;fill-opacity:1" />
  </g>
</svg>
